<svg width="12" height="12" viewBox="0 0 12 12" fill="none" xmlns="http://www.w3.org/2000/svg">
<path d="M6.32346 2.52124C6.31221 2.47915 6.31181 2.43516 6.32229 2.39289C6.33277 2.35063 6.35384 2.31132 6.38374 2.27821C6.41364 2.24511 6.45152 2.21916 6.49423 2.20252C6.53695 2.18588 6.58328 2.17903 6.62938 2.18253C9.02511 2.36318 10.9092 4.24394 10.9092 6.53844C10.9092 8.9524 8.82362 10.9089 6.25048 10.9089C5.43467 10.9092 4.6331 10.7085 3.92601 10.3267C3.21892 9.94502 2.63113 9.39573 2.22149 8.73387C2.1987 8.69718 2.18533 8.656 2.18247 8.61361C2.1796 8.57122 2.18731 8.52879 2.20499 8.48968C2.22267 8.45058 2.24982 8.41588 2.28429 8.38835C2.31876 8.36081 2.3596 8.3412 2.40357 8.33106C3.02434 8.18793 3.78176 7.95811 4.46892 7.60119C5.15724 7.24318 5.75394 6.76825 6.08703 6.14327C6.75245 4.89514 6.57658 3.46818 6.32346 2.52124Z" fill="#557174"/>
</svg>
