<svg xmlns="http://www.w3.org/2000/svg" width="16" height="16" viewBox="0 0 16 16">
    <path fill="gray" fill-rule="evenodd" d="M8 0c-.172 0-.324 0-.495.02-.248.018-.457.17-.533.399l-.305.857c-.058.19-.21.324-.4.381-.534.152-1.048.362-1.505.628-.09.051-.192.075-.292.075-.09 0-.18-.02-.26-.055l-.838-.4c-.088-.044-.179-.065-.268-.065-.143 0-.282.054-.4.16-.248.21-.476.457-.704.705-.152.19-.19.438-.095.666l.4.82c.076.17.076.38-.02.552-.266.476-.475.971-.628 1.505-.057.19-.19.342-.381.4l-.858.304c-.228.076-.38.286-.399.534C0 7.67 0 7.819 0 7.984v.032c0 .165 0 .313.02.48.018.247.17.456.398.533l.858.304c.191.058.324.21.38.4.154.534.363 1.048.63 1.505.095.172.095.38.018.552l-.4.838c-.114.23-.076.477.096.667.21.248.456.477.705.705.12.096.264.147.411.147.085 0 .172-.017.256-.052l.818-.4c.081-.036.17-.055.26-.055.101 0 .202.024.293.075.476.266.972.475 1.505.628.19.057.343.19.4.381l.304.857c.076.228.286.38.533.4C7.676 16 7.828 16 8 16s.324 0 .495-.02c.248-.018.457-.17.533-.4l.305-.856c.058-.19.21-.324.4-.381.534-.153 1.048-.362 1.505-.628.09-.051.192-.075.292-.075.09 0 .18.02.26.055l.82.4c.087.044.178.065.267.065.143 0 .281-.054.4-.16.246-.21.475-.457.704-.705.153-.19.191-.438.095-.667l-.38-.819c-.077-.17-.077-.38.018-.552.267-.476.476-.971.629-1.505.057-.19.19-.342.381-.4l.858-.304c.228-.076.38-.286.399-.534C16 8.324 16 8.172 16 8c0-.171 0-.324-.02-.496-.018-.247-.17-.456-.398-.532l-.858-.305c-.191-.058-.324-.21-.381-.4-.153-.534-.362-1.048-.629-1.505-.095-.172-.095-.38-.018-.553l.4-.818c.114-.229.076-.477-.096-.667-.21-.248-.456-.476-.704-.705-.121-.096-.265-.147-.412-.147-.086 0-.172.017-.255.052l-.82.38c-.08.037-.17.056-.26.056-.1 0-.201-.024-.292-.075-.476-.266-.971-.476-1.505-.628-.19-.057-.342-.19-.4-.381L9.048.419c-.076-.228-.286-.38-.533-.4C8.324 0 8.172 0 8 0m0 11c-1.65 0-3-1.35-3-3s1.35-3 3-3 3 1.35 3 3-1.35 3-3 3"/>
</svg>
