<svg width="12" height="12" viewBox="0 0 12 12" fill="none" xmlns="http://www.w3.org/2000/svg">
<path d="M5.99975 1.00049C6.17225 1.00049 6.31225 1.14049 6.31225 1.31299V1.93799C6.31225 2.02087 6.27933 2.10035 6.22072 2.15896C6.16212 2.21756 6.08263 2.25049 5.99975 2.25049C5.91687 2.25049 5.83738 2.21756 5.77878 2.15896C5.72017 2.10035 5.68725 2.02087 5.68725 1.93799V1.31299C5.68725 1.14049 5.82725 1.00049 5.99975 1.00049ZM8.5055 6.01199C8.5055 7.38924 7.389 8.50574 6.01175 8.50574C4.63425 8.50574 3.51775 7.38924 3.51775 6.01199C3.51775 4.63449 4.63425 3.51799 6.01175 3.51799C7.389 3.51799 8.5055 4.63449 8.5055 6.01199ZM10.6875 6.31274C10.7704 6.31274 10.8499 6.27981 10.9085 6.22121C10.9671 6.1626 11 6.08312 11 6.00024C11 5.91736 10.9671 5.83787 10.9085 5.77927C10.8499 5.72066 10.7704 5.68774 10.6875 5.68774H10.0625C9.97962 5.68774 9.90013 5.72066 9.84153 5.77927C9.78292 5.83787 9.75 5.91736 9.75 6.00024C9.75 6.08312 9.78292 6.1626 9.84153 6.22121C9.90013 6.27981 9.97962 6.31274 10.0625 6.31274H10.6875ZM5.99975 9.75024C6.17225 9.75024 6.31225 9.89024 6.31225 10.0627V10.6877C6.31225 10.7706 6.27933 10.8501 6.22072 10.9087C6.16212 10.9673 6.08263 11.0002 5.99975 11.0002C5.91687 11.0002 5.83738 10.9673 5.77878 10.9087C5.72017 10.8501 5.68725 10.7706 5.68725 10.6877V10.0627C5.68725 9.89024 5.82725 9.75024 5.99975 9.75024ZM1.9375 6.31274C2.02038 6.31274 2.09987 6.27981 2.15847 6.22121C2.21708 6.1626 2.25 6.08312 2.25 6.00024C2.25 5.91736 2.21708 5.83787 2.15847 5.77927C2.09987 5.72066 2.02038 5.68774 1.9375 5.68774H1.3125C1.22962 5.68774 1.15013 5.72066 1.09153 5.77927C1.03292 5.83787 1 5.91736 1 6.00024C1 6.08312 1.03292 6.1626 1.09153 6.22121C1.15013 6.27981 1.22962 6.31274 1.3125 6.31274H1.9375ZM2.3415 2.34174C2.37052 2.31271 2.40497 2.28969 2.44289 2.27398C2.48081 2.25827 2.52145 2.25018 2.5625 2.25018C2.60355 2.25018 2.64419 2.25827 2.68211 2.27398C2.72003 2.28969 2.75448 2.31271 2.7835 2.34174L3.4085 2.96674C3.43752 2.99576 3.46054 3.03021 3.47625 3.06813C3.49196 3.10605 3.50004 3.14669 3.50004 3.18774C3.50004 3.22878 3.49196 3.26942 3.47625 3.30734C3.46054 3.34526 3.43752 3.37972 3.4085 3.40874C3.37948 3.43776 3.34502 3.46078 3.3071 3.47649C3.26919 3.4922 3.22854 3.50028 3.1875 3.50028C3.14646 3.50028 3.10581 3.4922 3.0679 3.47649C3.02998 3.46078 2.99552 3.43776 2.9665 3.40874L2.3415 2.78374C2.31247 2.75472 2.28945 2.72027 2.27374 2.68235C2.25803 2.64443 2.24994 2.60378 2.24994 2.56274C2.24994 2.52169 2.25803 2.48105 2.27374 2.44313C2.28945 2.40521 2.31247 2.37076 2.3415 2.34174ZM2.7835 9.65899C2.72489 9.7176 2.64539 9.75053 2.5625 9.75053C2.47961 9.75053 2.40011 9.7176 2.3415 9.65899C2.28289 9.60038 2.24996 9.52088 2.24996 9.43799C2.24996 9.3551 2.28289 9.2756 2.3415 9.21699L2.9665 8.59199C2.99552 8.56297 3.02998 8.53994 3.0679 8.52424C3.10581 8.50853 3.14646 8.50045 3.1875 8.50045C3.22854 8.50045 3.26919 8.50853 3.3071 8.52424C3.34502 8.53994 3.37948 8.56297 3.4085 8.59199C3.43752 8.62101 3.46054 8.65547 3.47625 8.69338C3.49196 8.7313 3.50004 8.77194 3.50004 8.81299C3.50004 8.85403 3.49196 8.89467 3.47625 8.93259C3.46054 8.97051 3.43752 9.00497 3.4085 9.03399L2.7835 9.65899ZM9.6585 2.34174C9.5999 2.28319 9.52046 2.25031 9.43762 2.25031C9.35479 2.25031 9.27535 2.28319 9.21675 2.34174L8.59175 2.96674C8.53314 3.02535 8.50021 3.10485 8.50021 3.18774C8.50021 3.27063 8.53314 3.35013 8.59175 3.40874C8.65036 3.46735 8.72986 3.50028 8.81275 3.50028C8.89564 3.50028 8.97514 3.46735 9.03375 3.40874L9.65875 2.78374C9.68778 2.75472 9.7108 2.72027 9.72651 2.68235C9.74222 2.64443 9.75031 2.60378 9.75031 2.56274C9.75031 2.52169 9.74222 2.48105 9.72651 2.44313C9.7108 2.40521 9.68753 2.37076 9.6585 2.34174ZM9.21675 9.65899C9.27536 9.7176 9.35486 9.75053 9.43775 9.75053C9.52064 9.75053 9.60014 9.7176 9.65875 9.65899C9.71736 9.60038 9.75029 9.52088 9.75029 9.43799C9.75029 9.3551 9.71736 9.2756 9.65875 9.21699L9.03375 8.59199C9.00473 8.56297 8.97027 8.53994 8.93235 8.52424C8.89443 8.50853 8.85379 8.50045 8.81275 8.50045C8.77171 8.50045 8.73106 8.50853 8.69315 8.52424C8.65523 8.53994 8.62077 8.56297 8.59175 8.59199C8.56273 8.62101 8.53971 8.65547 8.524 8.69338C8.50829 8.7313 8.50021 8.77194 8.50021 8.81299C8.50021 8.85403 8.50829 8.89467 8.524 8.93259C8.53971 8.97051 8.56273 9.00497 8.59175 9.03399L9.21675 9.65899Z" fill="#557174"/>
</svg>
